<?xml version="1.0" standalone="no"?>
<!DOCTYPE svg PUBLIC "-//W3C//DTD SVG 20010904//EN"
 "http://www.w3.org/TR/2001/REC-SVG-20010904/DTD/svg10.dtd">
<svg version="1.0" xmlns="http://www.w3.org/2000/svg"
 width="1000.000000pt" height="1000.000000pt" viewBox="0 0 1000.000000 1000.000000"
 preserveAspectRatio="xMidYMid meet">
<metadata>
Created by potrace 1.15, written by Peter Selinger 2001-2017
</metadata>
<g transform="translate(0.000000,1000.000000) scale(0.100000,-0.100000)"
fill="#000000" stroke="none">
<path d="M4855 6335 c-55 -8 -145 -26 -200 -41 -55 -14 -128 -33 -162 -40 -92
-21 -249 -85 -410 -169 -195 -102 -312 -175 -547 -342 -172 -122 -472 -433
-593 -613 -73 -110 -86 -128 -123 -178 -21 -30 -40 -58 -42 -62 -2 -5 -52 -14
-112 -20 -243 -25 -416 -123 -498 -283 -26 -52 -32 -77 -36 -147 -5 -105 9
-176 52 -266 61 -127 111 -166 241 -187 l75 -12 0 -148 c0 -116 8 -203 35
-395 36 -254 65 -485 65 -511 0 -38 -30 19 -54 101 -41 144 -56 232 -56 341 0
161 -45 274 -133 338 -26 19 -34 29 -23 29 9 0 15 4 12 9 -6 9 -93 4 -149 -10
-139 -36 -190 -244 -131 -535 l6 -32 -73 24 c-180 59 -400 83 -500 55 -59 -17
-156 -95 -206 -168 l-38 -55 -3 -125 c-3 -112 -1 -134 22 -207 52 -167 171
-296 376 -408 86 -47 184 -82 310 -108 l103 -23 60 -63 c32 -35 81 -80 108
-100 35 -25 78 -78 151 -186 57 -83 109 -162 117 -177 58 -108 252 -382 328
-463 245 -259 276 -297 293 -357 29 -103 31 -489 4 -743 l-7 -58 3442 0 3441
0 0 118 0 117 -47 80 c-25 44 -92 161 -149 260 -56 99 -118 205 -137 235 -19
30 -64 111 -99 180 -35 69 -98 181 -139 250 -103 171 -238 409 -272 478 -16
31 -57 107 -91 167 -94 163 -109 197 -160 350 -59 175 -96 325 -96 389 0 28 9
82 20 120 53 192 110 617 110 821 0 93 -7 155 -31 275 -57 289 -70 396 -76
615 -7 290 6 458 46 552 96 232 126 530 70 698 -21 64 -32 79 -130 180 -118
121 -183 166 -274 190 -113 29 -348 9 -445 -39 -115 -57 -179 -227 -180 -475
l0 -94 -47 45 c-110 102 -200 147 -292 148 -62 0 -65 -1 -107 -44 -43 -42 -44
-45 -44 -108 0 -69 16 -125 70 -243 30 -68 120 -210 157 -250 10 -11 54 -64
98 -118 44 -54 93 -114 108 -133 21 -25 32 -52 39 -101 11 -67 129 -654 146
-724 10 -40 -11 -110 -27 -93 -5 5 -40 68 -77 139 -37 72 -86 155 -109 185
-80 105 -125 190 -125 236 0 112 -56 282 -155 472 -117 223 -214 338 -526 619
-127 115 -150 140 -179 199 -38 78 -142 189 -205 218 -23 11 -73 21 -125 25
-84 6 -87 7 -205 78 -250 150 -474 234 -815 305 -128 26 -498 34 -645 13z
m1040 -520 c86 -18 193 -69 261 -123 128 -101 227 -338 180 -429 -15 -29 -101
-83 -133 -83 -7 0 -13 -2 -13 -3 0 -2 40 -44 88 -93 178 -181 319 -446 377
-714 25 -115 31 -345 11 -457 -35 -201 -107 -333 -276 -504 -250 -252 -561
-410 -950 -481 -157 -29 -481 -31 -615 -5 -320 63 -575 202 -752 410 -126 148
-203 375 -203 598 0 202 58 383 180 564 71 105 255 335 303 378 157 144 347
273 539 367 229 112 408 160 602 160 67 0 87 3 83 13 -64 144 -80 223 -58 289
15 44 66 94 116 112 52 19 172 19 260 1z m-2345 -289 c0 -2 -33 -23 -72 -46
-47 -28 -105 -76 -161 -134 -92 -95 -101 -93 -50 9 51 99 92 136 181 160 46
13 102 19 102 11z m426 -380 c67 -31 149 -111 176 -174 57 -127 -1 -280 -177
-469 -94 -102 -154 -134 -260 -141 -158 -10 -292 54 -346 166 -46 95 -26 256
50 388 123 213 370 315 557 230z m-1413 -414 c73 -42 99 -123 72 -221 -22 -78
-68 -131 -147 -170 -102 -51 -211 -38 -262 31 -28 38 -27 136 1 200 29 63 94
132 156 163 42 22 61 25 100 21 27 -3 63 -14 80 -24z"/>
<path d="M5079 5262 c-125 -42 -236 -145 -259 -242 -13 -56 -3 -121 27 -167
33 -49 125 -79 289 -92 95 -8 101 -7 135 16 54 35 171 161 204 217 58 100 26
192 -89 251 -51 26 -71 30 -155 32 -72 2 -110 -1 -152 -15z"/>
<path d="M5750 4484 c-245 -31 -457 -97 -692 -215 -208 -106 -532 -331 -641
-447 l-28 -30 86 -7 c48 -4 202 -7 343 -7 497 1 675 43 968 229 168 106 584
429 584 452 0 30 -439 48 -620 25z"/>
<path d="M3664 4883 c-6 -39 -3 -55 16 -91 22 -40 62 -82 80 -82 13 0 22 74
14 115 -8 43 -58 105 -84 105 -15 0 -20 -11 -26 -47z"/>
</g>
</svg>
